<?xml version="1.0" standalone="no"?><!DOCTYPE svg PUBLIC "-//W3C//DTD SVG 1.1//EN" "http://www.w3.org/Graphics/SVG/1.1/DTD/svg11.dtd"><svg t="1555937973447" class="icon" style="" viewBox="0 0 1024 1024" version="1.1" xmlns="http://www.w3.org/2000/svg" p-id="521" xmlns:xlink="http://www.w3.org/1999/xlink" width="48" height="48"><defs><style type="text/css"></style></defs><path d="M960 736V288a64 64 0 0 0-64-64H340.064c-13.92 0-21.536 7.296-21.536 7.296L71.648 492.48c-8.096 8.128-7.648 18.4-7.648 18.4 0 14.144 8.544 21.856 8.544 21.856l244.16 259.072c6.304 5.984 13.056 8.704 20.224 8.128H896a64 64 0 0 0 64-64z m-216.224-359.776a32 32 0 0 1 0 45.28l-226.272 226.24a32 32 0 0 1-45.248-45.248l226.24-226.24a32 32 0 0 1 45.28 0z m-226.272 0l226.24 226.272a32 32 0 0 1-45.248 45.248l-226.24-226.24a32 32 0 0 1 45.248-45.248zM854.816 735.36h-498.56l-210.112-224 210.976-222.24 1.344-1.28h496.352a32 32 0 0 1 32 32v383.52a32 32 0 0 1-32 32z" fill="#000000" p-id="522"></path></svg>